<svg width="33" height="33" viewBox="0 0 33 33" fill="none" xmlns="http://www.w3.org/2000/svg">
<path d="M9.32742 24.5813L9.99976 25.3216L10.0175 25.3054L10.0345 25.2884L9.32742 24.5813ZM9.25216 24.6497L9.8844 25.4244L9.9049 25.4077L9.92449 25.3899L9.25216 24.6497ZM16.4996 17.4091L17.2067 16.702L16.4996 15.9949L15.7925 16.702L16.4996 17.4091ZM23.6722 24.5817L22.9651 25.2888L22.9855 25.3092L23.007 25.3284L23.6722 24.5817ZM23.7481 24.6494L23.0829 25.396L23.0991 25.4105L23.1159 25.4242L23.7481 24.6494ZM25.0864 24.5817L25.7933 25.289L25.7935 25.2888L25.0864 24.5817ZM25.1548 23.2428L25.9295 22.6105L25.9128 22.59L25.895 22.5704L25.1548 23.2428ZM25.0864 23.1675L25.8266 22.4952L25.8105 22.4774L25.7935 22.4604L25.0864 23.1675ZM17.9138 15.9949L17.2067 15.2878L16.4996 15.9949L17.2067 16.702L17.9138 15.9949ZM25.0861 7.40843L25.7932 6.70132L25.793 6.70113L25.0861 7.40843ZM16.4996 14.5807L15.7925 15.2878L16.4996 15.9949L17.2067 15.2878L16.4996 14.5807ZM7.91351 7.40882L7.2064 6.70172L7.20621 6.70191L7.91351 7.40882ZM15.0854 15.9949L15.7925 16.702L16.4996 15.9949L15.7925 15.2878L15.0854 15.9949ZM7.91321 23.1671L7.2061 22.46L7.18572 22.4804L7.16655 22.5019L7.91321 23.1671ZM7.84554 23.2431L7.09888 22.5779L7.08445 22.594L7.07075 22.6108L7.84554 23.2431ZM7.91321 24.5813L7.20591 25.2882L7.2061 25.2884L7.91321 24.5813ZM9.32742 24.5813L8.65509 23.8411L8.57982 23.9094L9.25216 24.6497L9.92449 25.3899L9.99976 25.3216L9.32742 24.5813ZM16.4996 17.4091L15.7925 16.702L8.62032 23.8742L9.32742 24.5813L10.0345 25.2884L17.2067 18.1162L16.4996 17.4091ZM23.6722 24.5817L24.3793 23.8746L17.2067 16.702L16.4996 17.4091L15.7925 18.1162L22.9651 25.2888L23.6722 24.5817ZM23.7481 24.6494L24.4133 23.9027L24.3374 23.8351L23.6722 24.5817L23.007 25.3284L23.0829 25.396L23.7481 24.6494ZM25.0864 24.5817L24.3795 23.8744L24.3804 23.8746L23.7481 24.6494L23.1159 25.4242C23.9012 26.065 25.0597 26.0223 25.7933 25.289L25.0864 24.5817ZM25.1548 23.2428L24.38 23.875L24.3793 23.8746L25.0864 24.5817L25.7935 25.2888C26.5265 24.5558 26.5711 23.3967 25.9295 22.6105L25.1548 23.2428ZM25.0864 23.1675L24.3461 23.8398L24.4145 23.9151L25.1548 23.2428L25.895 22.5704L25.8266 22.4952L25.0864 23.1675ZM17.9138 15.9949L17.2067 16.702L24.3793 23.8746L25.0864 23.1675L25.7935 22.4604L18.6209 15.2878L17.9138 15.9949ZM25.0861 8.82264L24.379 8.11553L17.2067 15.2878L17.9138 15.9949L18.6209 16.702L25.7932 9.52975L25.0861 8.82264ZM25.0861 7.40843L24.379 8.11553L25.0861 8.82264L25.7932 9.52975C26.5743 8.7487 26.5743 7.48237 25.7932 6.70132L25.0861 7.40843ZM23.6719 7.40843L24.379 8.11553L24.3792 8.11573L25.0861 7.40843L25.793 6.70113C25.0122 5.92073 23.746 5.92015 22.9648 6.70132L23.6719 7.40843ZM16.4996 14.5807L17.2067 15.2878L24.379 8.11553L23.6719 7.40843L22.9648 6.70132L15.7925 13.8736L16.4996 14.5807ZM9.32772 7.40882L8.62061 8.11593L15.7925 15.2878L16.4996 14.5807L17.2067 13.8736L10.0348 6.70172L9.32772 7.40882ZM7.91351 7.40882L8.62061 8.11593L9.32772 7.40882L10.0348 6.70172C9.25378 5.92067 7.98745 5.92067 7.2064 6.70172L7.91351 7.40882ZM7.91351 8.82304L8.62061 8.11593L8.62081 8.11574L7.91351 7.40882L7.20621 6.70191C6.4258 7.48274 6.42522 8.74897 7.2064 9.53014L7.91351 8.82304ZM15.0854 15.9949L15.7925 15.2878L8.62061 8.11593L7.91351 8.82304L7.2064 9.53014L14.3783 16.702L15.0854 15.9949ZM7.91321 23.1671L8.62032 23.8742L15.7925 16.702L15.0854 15.9949L14.3783 15.2878L7.2061 22.46L7.91321 23.1671ZM7.84554 23.2431L8.5922 23.9083L8.65987 23.8323L7.91321 23.1671L7.16655 22.5019L7.09888 22.5779L7.84554 23.2431ZM7.91321 24.5813L8.62051 23.8744L8.62033 23.8753L7.84554 23.2431L7.07075 22.6108C6.42994 23.3962 6.47267 24.5546 7.20591 25.2882L7.91321 24.5813ZM9.25216 24.6497L8.61991 23.8749L8.62032 23.8742L7.91321 24.5813L7.2061 25.2884C7.93908 26.0214 9.09822 26.066 9.8844 25.4244L9.25216 24.6497Z" fill="white"/>
</svg>
